# xmcd
#
# Track frame offsets: 
#        150
#        15442
#        34480
#        52697
#        74462
#        97042
#        115045
#        136425
#        155377
#        182567
#        205050
#
# Disc length: 3039 seconds
#
# Revision: 0
# Processed by: cddbd v1.4PL0 Copyright (c) Steve Scherf et al.
# Submitted via: ExactAudioCopy v0.95a3
#
DISCID=8d0bdd0b
DTITLE=Cache Valley Drifters - mightyfine.net
DYEAR=1999
DGENRE=Country
TTITLE0=Rings
TTITLE1=Evangelina
TTITLE2=The Man you Are
TTITLE3=Someplace Far Away
TTITLE4=Drift Away
TTITLE5=Damn Your Eyes
TTITLE6=Hollywood Waltz
TTITLE7=Eyes of a Painter
TTITLE8=Rhode Island Bride
TTITLE9=Delta Lady
TTITLE10=Rounders
EXTD=
EXTT0=
EXTT1=
EXTT2=
EXTT3=
EXTT4=
EXTT5=
EXTT6=
EXTT7=
EXTT8=
EXTT9=
EXTT10=
PLAYORDER=
